<?xml version="1.0" encoding="utf-8"?>
<!-- Generator: Adobe Illustrator 16.0.0, SVG Export Plug-In . SVG Version: 6.00 Build 0)  -->
<!DOCTYPE svg PUBLIC "-//W3C//DTD SVG 1.1//EN" "http://www.w3.org/Graphics/SVG/1.1/DTD/svg11.dtd">
<svg version="1.1" id="Layer_1" xmlns="http://www.w3.org/2000/svg" xmlns:xlink="http://www.w3.org/1999/xlink" x="0px" y="0px"
	 width="333.165px" height="481.897px" viewBox="0 0 333.165 481.897" enable-background="new 0 0 333.165 481.897"
	 xml:space="preserve">
<g>
	<polygon opacity="0.2" fill="#231F20" points="333.165,481.896 171.345,381.424 9.411,481.896 9.411,0 333.165,0 	"/>
	<polygon fill="#FFFFFF" points="323.754,481.896 161.934,381.424 0,481.896 0,0 323.754,0 	"/>
	<g>
		<path fill-rule="evenodd" clip-rule="evenodd" fill="#445D73" d="M266.333,245.972c15.816-22.592,25.102-50.09,25.102-79.759
			c0-76.905-62.344-139.25-139.249-139.25s-139.25,62.344-139.25,139.25c0,76.906,62.345,139.249,139.25,139.249
			c25.409,0,49.225-6.809,69.732-18.696c28.915,24.634,92.942-30.852,92.666-30.68C298.106,266.187,278.478,255.284,266.333,245.972
			z"/>
		<g>
			<path fill-rule="evenodd" clip-rule="evenodd" fill="#445D73" d="M138.276,211.246c0,0,5.299,24.16,29.89,6.897
				c24.59-17.261,17.778,84.882,17.778,84.882s-40.364,11.12-74.596-1.964c-34.232-13.082,13.629-94.823,13.629-94.823
				L138.276,211.246z"/>
			<path fill="#2B2829" d="M131.375,208.037h7.319c0,0,2.454,33.57,34.66,5.396c32.206-28.174,0.435,91.997,0.435,91.997
				s-17.971,2.542-32.013,1.783c-11.542-0.625-38.586-8.931-38.586-8.931l21.787-88.086L131.375,208.037z"/>
			<path fill-rule="evenodd" clip-rule="evenodd" fill="#F16A5E" d="M141.776,259.722c0,0-5.104,47.102-5.856,47.015
				c-7.596-0.865-42.203-3.709-72.895-31.876c0,0-4.645-32.119,0-40.299c4.644-8.18,69.389-1.879,69.389-1.879L141.776,259.722z"/>
			<path fill-rule="evenodd" clip-rule="evenodd" fill="#DD5952" d="M57.886,214.483c0,0-4.568,9.749-4.568,11.199
				c0,1.45,14.35,18.198,14.35,18.198l18.724,7l38.585-4.2l16.799,13.041l-21.214-42.698L57.886,214.483z"/>
			<path fill-rule="evenodd" clip-rule="evenodd" fill="#F16A5E" d="M161.331,257.181c0,0-1.707,49.405-0.568,49.398
				c8.883,0.569,53.327-4.95,75.608-27.753c0,0,14.525-42.319,9.883-50.498c-4.644-8.18-77.326,6.017-77.326,6.017L161.331,257.181z
				"/>
			<path fill-rule="evenodd" clip-rule="evenodd" fill="#F16A5E" d="M57.886,211.942c0,0-14.018,10.839-14.018,12.29
				c0,1.451,3.15,8.1,3.15,8.1l39.374,13.3l40.393-4.9l13.941,16.449l-20.165-42.697L57.886,211.942z"/>
			<path fill-rule="evenodd" clip-rule="evenodd" fill="#445D73" d="M122.606,241.237c0,0-0.215-4.829-4.152-4.699
				c-3.938,0.132-4.161,4.383-4.161,4.383"/>
			<path fill-rule="evenodd" clip-rule="evenodd" fill="#F1E4D4" d="M115.113,239.595c0,0-4.2,52.977,0,57.524
				c4.2,4.551,4.619-0.697,4.672-4.548c0.053-3.851-0.452-48.559,1.449-52.398C121.234,240.173,117.847,236.313,115.113,239.595z"/>
			<path fill-rule="evenodd" clip-rule="evenodd" fill="#DD5952" d="M111.348,226.592h8.642l4.987,7.753
				c0,0-10.72-2.533-17.829-4.68c-7.108-2.146-5.85-7.354-5.85-7.354L111.348,226.592z"/>
			<path fill-rule="evenodd" clip-rule="evenodd" fill="#DD5952" d="M245.223,213.433c0,0,4.567,9.748,4.567,11.199
				c0,1.45-3.536,12.47-3.536,12.47l-29.537,12.729l-38.587-4.199l-16.799,13.04l21.214-42.698L245.223,213.433z"/>
			<path fill-rule="evenodd" clip-rule="evenodd" fill="#F16A5E" d="M245.223,211.942c0,0,14.017,10.839,14.017,12.29
				c0,1.451-3.151,8.1-3.151,8.1l-39.371,13.3l-40.396-4.9l-14.99,16.449l21.215-42.697L245.223,211.942z"/>
			<path fill-rule="evenodd" clip-rule="evenodd" fill="#DD5952" d="M57.886,211.942l5.668,15.315l23.537,5.425l30.272-5.075
				C117.364,227.607,57.554,217.976,57.886,211.942z"/>
			<path fill-rule="evenodd" clip-rule="evenodd" fill="#DD5952" d="M190.367,225.761h-8.641l-4.988,7.752
				c0,0,10.719-2.532,17.828-4.678c7.108-2.146,5.852-7.354,5.852-7.354L190.367,225.761z"/>
			<path fill-rule="evenodd" clip-rule="evenodd" fill="#DD5952" d="M243.83,211.111l-5.669,15.314l-23.536,5.425l-30.274-5.075
				C184.351,226.776,244.162,217.145,243.83,211.111z"/>
			<path fill-rule="evenodd" clip-rule="evenodd" fill="#352815" d="M177.075,172.135l25.886,23.32l-8.889,19.029l-19.172-4.025
				c0,0-11.934-21.452-4.879-29.888C177.075,172.135,177.075,172.135,177.075,172.135z"/>
			<path fill-rule="evenodd" clip-rule="evenodd" fill="#352815" d="M130.292,180.57l-25.049,23.32v13.392l33.033-6.037
				c0,0,5.667-13.804-1.159-22.24C130.292,180.57,130.292,180.57,130.292,180.57z"/>
			<polyline fill-rule="evenodd" clip-rule="evenodd" fill="#F16A5E" points="66.186,191.559 55.068,194.708 55.068,209.583 
				72.567,224.232 111.765,224.808 141.776,259.722 131.014,206.238 82.502,182.448 67.317,191.559 			"/>
			<path fill-rule="evenodd" clip-rule="evenodd" fill="#E4D6C6" d="M133.99,191.703c0,0,8.136,18.054,4.287,20.209
				c-0.175,0.54,2.361,14.82,15.793,13.203c13.43-1.617,21.739-14.011,21.739-14.011s-7.784-11.317-6.208-19.401
				C171.174,183.619,137.228,184.967,133.99,191.703z"/>
			<polyline fill-rule="evenodd" clip-rule="evenodd" fill="#F16A5E" points="235.137,192.592 246.254,195.741 246.254,210.616 
				228.755,225.265 183.257,229.516 160.763,257.181 170.308,207.271 218.82,183.481 234.004,192.592 			"/>
			<path fill-rule="evenodd" clip-rule="evenodd" fill="#352815" d="M223.823,195.344c0,0,14.81,22.599,2.272,38.728
				c-12.535,16.127-28.697,40.642-6.647,47.885c0,0-38.433-14.147-28.316-36.852c10.117-22.704,1.347-50.268,12.917-51.475
				C215.618,192.423,210.131,181.16,223.823,195.344z"/>
			<path fill-rule="evenodd" clip-rule="evenodd" fill="#DFBEB7" d="M169.646,190.978c0,0-26.545,23.441-30.951,12.218
				c-3.116-7.941-3.968-9.976-3.968-9.976s19.737-10.761,26.474-8.136C167.938,187.709,169.646,190.978,169.646,190.978z"/>
			<ellipse fill="#E4D6C6" cx="148.338" cy="133.286" rx="61.947" ry="61.423"/>
			<path fill-rule="evenodd" clip-rule="evenodd" fill="#DCC1BE" d="M97.624,155.236c0,0,11.866-9.021,16.066-4.643
				c4.199,4.377,13.913,3.158,5.5,11.331c-8.414,8.172-17.622,4.249-17.622,4.249L97.624,155.236z"/>
			<path fill-rule="evenodd" clip-rule="evenodd" fill="#352815" d="M109.97,86.309c0,0-12.555-22.602,9.495-25.897
				c0,0-13.58,17.029-6.527,20.326c7.052,3.296,45.899-46.616,75.823-7.377c29.924,39.239,20.999,48.029,35.174,48.029
				c14.174,0-28.874,9.888-34.648-10.987C183.512,89.527,109.398,119.348,109.97,86.309z"/>
			<path fill-rule="evenodd" clip-rule="evenodd" fill="#352815" d="M111.752,89.807c0,0,5.306,8.038,0,13.312
				c-8.526,8.474,4.458-15.943-4.436-3.827c-6.957,9.477-8.485,14.762-8.485,14.762s-4.139,5.896-1.273,16.558
				c2.827,10.512,12.101,17.339,9.758,35.928c0,0-1.162-3.916-8.677-9.841c-3.727-2.938,19.09,19.452-5.187,24.603
				c-23.193,4.921-11.107,58.228-6.566,64.79c0,0-37.841-34.719-17.487-71.35c27.718-49.884,5.237-90.212,41.854-91.853"/>
			<path fill-rule="evenodd" clip-rule="evenodd" fill="#DCC1BE" d="M203.508,152.734c0,0-11.867-9.475-16.066-4.877
				c-4.2,4.598-13.912,3.317-5.498,11.9c8.413,8.583,17.62,4.462,17.62,4.462L203.508,152.734z"/>
			<path opacity="0.5" fill-rule="evenodd" clip-rule="evenodd" fill="#DCC1BE" d="M138.889,161.11c0,0,12.099,5.01,12.73,0
				c0.686-5.443-2.756-5.381-3.281-10.369C147.813,145.755,137.138,155.861,138.889,161.11z"/>
			<path fill-rule="evenodd" clip-rule="evenodd" fill="#445D73" d="M185.587,238.22c0,0-0.214-4.83-4.152-4.7
				c-3.937,0.131-4.16,4.382-4.16,4.382"/>
			<path fill-rule="evenodd" clip-rule="evenodd" fill="#352815" d="M95.332,107.45c0,0-6.904,63.031,5.796,80.972
				c0,0-39.573-36.069-13.636-81.937"/>
			<path fill-rule="evenodd" clip-rule="evenodd" fill="#352815" d="M200.442,111.763c0,0,2.362,64.19-12.434,80.445
				c0,0,46.487-31.645,23.538-79.658"/>
			<path fill-rule="evenodd" clip-rule="evenodd" fill="#F1E4D4" d="M184.988,235.873c0,0,4.201,52.977,0,57.526
				c-4.198,4.551-4.618-0.699-4.67-4.55c-0.055-3.85,0.681-49.255-1.699-52.977"/>
			<path fill-rule="evenodd" clip-rule="evenodd" fill="#352815" d="M101.066,153.297c0,0,34.782,40.56,14.462,60.406
				c-16.012,15.638-4.726,19.931,7.087,39.248c11.812,19.318-4.2,35.876-14.174,39.249c0,0,21.523-31.275-14.7-46.301
				c-15.71-6.517-23.887-43.54-12.861-61.632c11.024-18.091,17.223-38.147,16.046-45.2
				C95.748,132.014,101.066,153.297,101.066,153.297z"/>
			<path fill-rule="evenodd" clip-rule="evenodd" fill="#352815" d="M110.172,85.423c0,0-11.208,0.518-9.721-11.695L110.172,85.423z
				"/>
			<path fill-rule="evenodd" clip-rule="evenodd" fill="#352815" d="M217.912,137.458c0,0,5.668,49.699,28.766,51.273
				C246.678,188.731,186.765,191.704,217.912,137.458z"/>
			<g>
				<path fill="#DEBDB6" d="M141.776,155.336c0,0-0.153,0.159-0.394,0.436c-0.246,0.269-0.574,0.667-0.926,1.129
					c-0.171,0.237-0.346,0.492-0.501,0.766c-0.182,0.26-0.291,0.567-0.431,0.854c-0.044,0.154-0.097,0.303-0.152,0.453
					c-0.057,0.149-0.051,0.312-0.092,0.463c-0.043,0.152-0.055,0.31-0.044,0.469c0.004,0.158-0.015,0.315-0.003,0.475
					c0.085,0.319,0.054,0.646,0.201,0.966c0.117,0.319,0.18,0.653,0.361,0.956c0.167,0.302,0.253,0.637,0.447,0.91
					c0.174,0.282,0.328,0.563,0.471,0.829c0.135,0.27,0.31,0.488,0.438,0.704c0.139,0.207,0.249,0.403,0.343,0.563
					c0.185,0.324,0.283,0.526,0.283,0.526s-0.2-0.08-0.536-0.25c-0.167-0.087-0.373-0.19-0.597-0.327
					c-0.223-0.139-0.5-0.268-0.735-0.493c-0.25-0.208-0.523-0.439-0.799-0.699c-0.292-0.243-0.507-0.604-0.768-0.939
					c-0.272-0.327-0.452-0.756-0.635-1.186c-0.225-0.41-0.245-0.934-0.35-1.409c0.017-0.496-0.029-1.016,0.142-1.484
					c0.104-0.489,0.327-0.912,0.554-1.306c0.257-0.366,0.511-0.72,0.813-0.974c0.282-0.28,0.588-0.487,0.87-0.667
					c0.567-0.355,1.083-0.548,1.452-0.646C141.557,155.351,141.776,155.336,141.776,155.336z"/>
			</g>
			<path fill-rule="evenodd" clip-rule="evenodd" fill="#DEBDB6" d="M148.076,165.772c0,0,1.05-3.15,4.2-3.019"/>
			
				<ellipse transform="matrix(0.2651 -0.9642 0.9642 0.2651 -5.2645 297.6154)" fill="#FFFFFF" cx="192.62" cy="152.261" rx="0.54" ry="2.153"/>
			<path fill="#DD5952" d="M82.502,258.672c0,0-2.038,29.789,2.828,32.39"/>
			
				<ellipse transform="matrix(0.266 -0.964 0.964 0.266 -49.2824 255.6434)" fill="#FFFFFF" cx="143.227" cy="160.183" rx="0.54" ry="2.154"/>
			
				<ellipse transform="matrix(0.2661 -0.9639 0.9639 0.2661 -69.8742 218.3969)" fill="#FFFFFF" cx="108.491" cy="155.087" rx="0.539" ry="2.153"/>
			<path fill-rule="evenodd" clip-rule="evenodd" fill="#352815" d="M201.528,142.173c0,0-34.783,39.92-14.462,59.454
				c16.011,15.392,4.725,19.618-7.087,38.631c-11.813,19.012,4.199,35.31,14.175,38.629c0,0-21.524-30.783,14.698-45.571
				c15.71-6.414,23.887-42.855,12.861-60.661c-11.023-17.806-19.153-41.045-17.976-47.986
				C204.915,117.728,201.528,142.173,201.528,142.173z"/>
			<path fill-rule="evenodd" clip-rule="evenodd" d="M109.78,120.883c8.742,0.068,16.006,0.782,23.139,2.543
				c2.808,0.693,5.555,1.637,8.342,2.416c2.591,0.724,5.222,1.235,7.934,1.105c2.86-0.136,5.598-0.875,8.333-1.658
				c2.897-0.829,5.778-1.741,8.715-2.396c4.325-0.966,8.721-1.554,13.153-1.755c2.781-0.125,5.568-0.242,8.349-0.195
				c4.874,0.081,9.71,0.625,14.501,1.531c0.444,0.084,0.657,0.33,0.661,0.775c0.016,1.729,0.03,3.459,0.055,5.188
				c0.008,0.643-0.281,1.147-0.699,1.593c-0.325,0.348-0.637,0.731-1.024,0.996c-1.28,0.875-1.763,2.198-2.131,3.601
				c-1.013,3.841-2.288,7.594-3.736,11.293c-1.732,4.42-4.927,7.187-9.401,8.626c-4.378,1.408-8.84,1.984-13.406,1.443
				c-3.501-0.415-6.861-1.326-9.777-3.442c-2.464-1.789-4.153-4.211-5.448-6.905c-1.265-2.63-2.4-5.321-3.605-7.979
				c-0.294-0.651-0.667-1.267-0.949-1.922c-0.508-1.184-1.415-1.812-2.643-2.078c-1.474-0.319-2.916-0.271-4.333,0.264
				c-0.762,0.288-1.316,0.796-1.658,1.54c-1.074,2.345-2.174,4.68-3.225,7.035c-1.087,2.435-2.208,4.846-3.826,6.987
				c-2.224,2.943-5.217,4.712-8.727,5.687c-3.79,1.051-7.629,1.242-11.521,0.738c-2.372-0.308-4.669-0.892-6.923-1.689
				c-4.231-1.499-7.11-4.386-8.606-8.569c-1.379-3.862-2.599-7.783-3.846-11.691c-0.351-1.098-0.863-2.066-1.776-2.757
				c-1.472-1.114-2.156-2.512-1.948-4.385c0.132-1.179,0.116-2.375,0.127-3.565c0.005-0.513,0.269-0.718,0.712-0.782
				c2.552-0.37,5.097-0.825,7.661-1.079C105.219,121.101,108.202,120.986,109.78,120.883z M182.522,124.012
				c-4.577-0.04-8.247,0.331-11.88,1.071c-2.997,0.61-5.91,1.504-8.743,2.638c-1.47,0.588-2.793,1.416-3.682,2.812
				c-1.327,2.085-1.45,4.354-1.098,6.704c0.473,3.163,1.76,6.004,3.476,8.667c2.432,3.77,5.794,6.241,10.227,7.099
				c4.301,0.832,8.584,0.615,12.804-0.553c4.131-1.144,7.229-3.61,9.085-7.488c2.025-4.228,3.011-8.734,3.097-13.406
				c0.035-1.774-0.532-3.489-1.867-4.756c-1.172-1.111-2.649-1.724-4.229-2.075C187.058,124.133,184.358,124.05,182.522,124.012z
				 M120.274,153.385c1.014,0,2.032,0.061,3.04-0.012c2.314-0.168,4.549-0.679,6.64-1.73c3.078-1.548,5.273-3.978,6.95-6.924
				c1.87-3.281,3.161-6.729,2.845-10.59c-0.21-2.566-1.344-4.618-3.688-5.811c-1.232-0.627-2.549-1.103-3.859-1.559
				c-4.396-1.53-8.925-2.398-13.576-2.652c-3.682-0.2-7.352-0.15-10.992,0.503c-1.359,0.245-2.659,0.674-3.818,1.447
				c-2.109,1.407-2.908,3.524-2.836,5.913c0.135,4.342,1.064,8.541,2.851,12.517c1.799,4.003,4.85,6.617,9.039,7.898
				C115.28,153.122,117.764,153.398,120.274,153.385z"/>
			<path fill-rule="evenodd" clip-rule="evenodd" fill="#F16A5E" d="M245.82,236.404l3.97,57.042c0,0-25.323,5.437-29.522-9.342"/>
			<path fill="#DD5952" d="M220.553,259.722c-0.049-0.723,0.69,30.509-2.826,32.391"/>
		</g>
		<path fill-rule="evenodd" clip-rule="evenodd" fill="#DFBEB7" d="M151.75,183.247c0,0,3.675,0.568,4.637-1.663"/>
		<g>
			<path fill="#2B2829" d="M182.736,118.541c0,0-18.71-5.625-21.849,0"/>
			<path fill="#2B2829" d="M106.315,118.541c0,0,18.71-5.625,21.85,0"/>
		</g>
		<path fill-rule="evenodd" clip-rule="evenodd" fill="#DFBEB7" d="M171.085,167.899c-5.28,11.086-37.096,12.67-37.096,12.67"/>
		<g>
			<ellipse fill="#2B2829" cx="121.9" cy="137.487" rx="3.31" ry="7.874"/>
			<ellipse fill="#2B2829" cx="170.561" cy="137.487" rx="3.311" ry="7.874"/>
			
				<ellipse transform="matrix(0.9138 -0.4061 0.4061 0.9138 -42.9455 61.3061)" fill="#FFFFFF" cx="122.979" cy="131.843" rx="1.079" ry="1.444"/>
			
				<ellipse transform="matrix(0.9139 -0.4059 0.4059 0.9139 -38.7731 80.8861)" fill="#FFFFFF" cx="171.287" cy="131.843" rx="1.08" ry="1.444"/>
		</g>
	</g>
</g>
<g>
	<path fill="#F16A5E" d="M47.224,341.218c0,0.536-0.211,0.839-0.634,0.909c-0.424,0.071-0.762-0.119-1.016-0.57
		c-0.931-1.494-1.691-2.792-2.283-3.892c-0.593-1.1-0.952-2.142-1.079-3.129s0-2.01,0.381-3.066
		c0.381-1.058,1.106-2.291,2.178-3.701c0.395-0.535,0.966-1.127,1.713-1.775s1.565-1.241,2.453-1.776
		c0.889-0.535,1.798-0.987,2.728-1.354c0.931-0.366,1.798-0.535,2.602-0.508c0.804,0.028,1.501,0.304,2.094,0.825
		c0.592,0.521,0.973,1.374,1.142,2.559c0.226,1.606,0.232,3.179,0.021,4.715c-0.211,1.537-0.543,2.939-0.993,4.208l0.254-0.253
		c0.395-0.423,0.789-0.847,1.184-1.27s0.817-0.789,1.269-1.1c2.199-1.578,3.855-2.058,4.97-1.438
		c1.113,0.62,1.656,2.256,1.628,4.906c-0.028,1.748-0.274,3.524-0.74,5.328c-0.465,1.805-0.895,3.553-1.289,5.244l-0.17,0.593
		c0.141-0.197,0.282-0.388,0.423-0.571c0.142-0.183,0.282-0.359,0.423-0.528c0.085-0.112,0.197-0.261,0.339-0.444
		c0.141-0.183,0.437-0.571,0.888-1.163s1.093-1.466,1.925-2.622c0.831-1.155,1.994-2.749,3.489-4.779
		c0.395-0.141,0.719-0.169,0.973-0.084c0.254,0.084,0.493,0.282,0.719,0.592c0.197,0.396,0.31,0.854,0.338,1.374
		c0.028,0.522,0.007,1.051-0.063,1.586c-0.07,0.536-0.162,1.065-0.274,1.587c-0.113,0.521-0.184,0.979-0.212,1.374
		c-0.141,1.185-0.296,2.404-0.465,3.658c-0.169,1.255-0.296,2.517-0.381,3.785c-0.084,1.269-0.092,2.523-0.021,3.764
		c0.069,1.24,0.274,2.453,0.613,3.638l0.803,0.296c0.226,0.169,0.366,0.345,0.424,0.528c0.056,0.184,0.056,0.359,0,0.529
		c-0.058,0.169-0.177,0.303-0.36,0.401s-0.401,0.148-0.655,0.148c-0.226-0.085-0.501-0.177-0.824-0.275
		c-0.325-0.099-0.586-0.261-0.783-0.486c-0.366-0.479-0.634-1.135-0.803-1.967c-0.17-0.832-0.282-1.755-0.339-2.77
		c-0.057-1.016-0.063-2.079-0.021-3.193c0.042-1.113,0.098-2.199,0.169-3.257c0.069-1.057,0.147-2.029,0.232-2.918
		c0.085-0.888,0.154-1.613,0.211-2.178l0.17-1.945c-0.423,0.648-0.931,1.402-1.522,2.263c-0.593,0.86-1.213,1.733-1.861,2.622
		c-0.648,0.888-1.29,1.755-1.924,2.601c-0.635,0.846-1.227,1.564-1.776,2.157c-0.55,0.592-1.029,1.029-1.438,1.311
		c-0.409,0.282-0.684,0.311-0.824,0.085c-0.254-0.141-0.444-0.275-0.571-0.402c-0.127-0.126-0.261-0.316-0.401-0.57
		c-0.113-0.62-0.1-1.466,0.042-2.538c0.141-1.071,0.339-2.205,0.592-3.404c0.254-1.198,0.521-2.354,0.804-3.468
		c0.281-1.113,0.508-2.022,0.677-2.728c0.169-0.846,0.303-1.698,0.402-2.559c0.098-0.86,0.034-1.698-0.19-2.517
		c-0.282,0-0.663,0.211-1.143,0.634s-0.966,0.91-1.459,1.46c-0.493,0.549-0.951,1.099-1.374,1.648s-0.719,0.938-0.889,1.163
		c-0.846,1.185-1.606,2.433-2.283,3.743c-0.677,1.312-1.368,2.622-2.072,3.934c-0.705,1.311-1.445,2.587-2.221,3.827
		c-0.775,1.241-1.685,2.383-2.728,3.426c-0.621,0.395-1.199,0.458-1.734,0.19c-0.536-0.268-0.846-0.769-0.931-1.502
		c0.057-0.619,0.219-1.275,0.486-1.966c0.268-0.691,0.578-1.382,0.931-2.073c0.353-0.69,0.719-1.367,1.1-2.029
		s0.698-1.262,0.952-1.798c0.619-1.269,1.148-2.332,1.586-3.192c0.437-0.86,0.838-1.678,1.205-2.453
		c0.366-0.775,0.712-1.614,1.036-2.517c0.323-0.902,0.669-2.03,1.036-3.384c0.226-0.846,0.416-1.705,0.571-2.579
		c0.154-0.874,0.225-1.692,0.211-2.453c-0.015-0.762-0.113-1.41-0.296-1.945c-0.184-0.535-0.501-0.896-0.951-1.079
		c-0.452-0.183-1.044-0.127-1.776,0.17c-0.733,0.296-1.649,0.895-2.749,1.797c-0.48,0.396-0.931,0.811-1.354,1.248
		s-0.832,0.896-1.227,1.374c-0.902,1.156-1.495,2.221-1.776,3.193c-0.282,0.973-0.346,1.918-0.19,2.833
		c0.155,0.917,0.479,1.854,0.973,2.813C46.004,339.047,46.576,340.091,47.224,341.218z"/>
	<path fill="#F16A5E" d="M76.448,341.641c0.45-0.648,0.839-0.923,1.163-0.824c0.323,0.099,0.486,0.43,0.486,0.993
		c-0.226,1.27-0.438,2.481-0.635,3.638s-0.346,2.171-0.443,3.045c-0.1,0.874-0.127,1.586-0.085,2.136s0.218,0.839,0.528,0.867v0.042
		c0.366,0.142,0.817,0.177,1.354,0.105c0.535-0.069,1.093-0.225,1.671-0.465c0.577-0.239,1.148-0.535,1.713-0.889
		c0.563-0.352,1.071-0.754,1.522-1.205c0.254-0.084,0.479-0.099,0.677-0.042c0.196,0.057,0.352,0.155,0.465,0.296
		c0.112,0.142,0.169,0.317,0.169,0.528c0,0.212-0.084,0.417-0.254,0.613c-2.002,1.607-3.7,2.693-5.096,3.257
		s-2.523,0.762-3.384,0.592c-0.86-0.169-1.466-0.627-1.818-1.374s-0.501-1.614-0.444-2.602c0.142-1.832,0.438-3.418,0.889-4.758
		C75.375,344.256,75.883,342.938,76.448,341.641z M79.789,332.21c0.169,0.254,0.247,0.521,0.232,0.804
		c-0.014,0.281-0.092,0.521-0.232,0.719c-0.142,0.197-0.331,0.317-0.57,0.359c-0.24,0.042-0.501-0.035-0.783-0.232
		c-0.311-0.226-0.472-0.479-0.486-0.762c-0.015-0.281,0.063-0.528,0.233-0.74c0.169-0.211,0.395-0.345,0.676-0.401
		C79.14,331.899,79.451,331.984,79.789,332.21z"/>
	<path fill="#F16A5E" d="M92.688,342.232c0,0.536-0.211,0.84-0.634,0.91c-0.424,0.07-0.762-0.12-1.016-0.571l-0.169-2.453h-0.592
		c-0.564,0.367-1.128,0.938-1.692,1.713c-0.563,0.775-1.057,1.614-1.479,2.517s-0.74,1.818-0.952,2.749
		c-0.211,0.931-0.232,1.733-0.063,2.41c0.057,0.254,0.197,0.558,0.423,0.909c0.226,0.354,0.479,0.558,0.762,0.613
		c0.423-0.056,0.867-0.218,1.332-0.486c0.465-0.268,0.938-0.57,1.417-0.909c0.479-0.338,0.944-0.683,1.396-1.036
		c0.45-0.352,0.846-0.641,1.185-0.867c0.253-0.084,0.472-0.098,0.655-0.042c0.183,0.057,0.331,0.155,0.444,0.296
		c0.112,0.142,0.169,0.317,0.169,0.529c0,0.211-0.085,0.416-0.254,0.613c-0.396,0.366-0.811,0.782-1.248,1.247
		s-0.888,0.924-1.353,1.375c-0.466,0.451-0.952,0.86-1.46,1.226c-0.507,0.367-1.029,0.635-1.564,0.804
		c-0.564,0.17-1.114,0.176-1.649,0.021c-0.536-0.154-1.022-0.401-1.459-0.74c-0.438-0.338-0.818-0.747-1.142-1.227
		c-0.325-0.479-0.571-0.973-0.74-1.48c-0.227-0.761-0.261-1.727-0.105-2.896c0.154-1.17,0.45-2.348,0.888-3.531
		c0.437-1.185,1.008-2.276,1.713-3.278c0.704-1,1.494-1.727,2.368-2.178c0.733-0.366,1.431-0.557,2.094-0.571
		c0.662-0.014,1.219,0.135,1.67,0.444c0.451,0.311,0.783,0.797,0.994,1.459C92.836,340.464,92.857,341.274,92.688,342.232z"/>
	<path fill="#F16A5E" d="M95.31,345.743c0.027-0.281,0.069-0.606,0.127-0.973c0.056-0.366,0.112-0.74,0.169-1.121
		c0.056-0.381,0.119-0.746,0.19-1.1c0.069-0.352,0.133-0.641,0.19-0.867c0.365-2.649,0.824-5.286,1.374-7.908
		s1.36-5.131,2.432-7.528c0.563-1.184,1.22-2.354,1.967-3.51s1.698-2.058,2.854-2.707c0.789-0.507,1.571-0.761,2.348-0.761
		c0.774,0,1.473,0.176,2.093,0.528s1.114,0.867,1.48,1.544s0.55,1.452,0.55,2.326c0,2.481-0.528,4.751-1.586,6.809
		c-1.058,2.059-2.474,3.948-4.25,5.667c-0.705,0.677-1.255,1.213-1.649,1.607c-0.396,0.396-0.762,0.747-1.1,1.058
		c-0.339,0.311-0.713,0.642-1.121,0.993c-0.409,0.354-0.994,0.84-1.755,1.459l-0.465,0.381c-0.17,0.987-0.317,1.974-0.444,2.961
		s-0.261,1.987-0.402,3.002c0.423-0.535,0.881-1.028,1.375-1.479c0.493-0.451,1.05-0.902,1.671-1.354
		c0.225-0.085,0.408-0.134,0.55-0.148c0.141-0.014,0.323,0.021,0.55,0.106c0.788,0.338,1.317,0.797,1.586,1.374
		c0.268,0.578,0.429,1.213,0.486,1.903c0.056,0.691,0.077,1.417,0.063,2.178c-0.015,0.762,0.091,1.522,0.316,2.284
		c0.085,0,0.141,0.015,0.17,0.042c0.281-0.226,0.556-0.43,0.824-0.613c0.268-0.183,0.528-0.387,0.782-0.613
		c0.254-0.084,0.472-0.099,0.655-0.042s0.332,0.155,0.444,0.296c0.112,0.142,0.169,0.317,0.169,0.528
		c0,0.212-0.084,0.417-0.253,0.613c-0.339,0.282-0.671,0.586-0.994,0.909c-0.324,0.324-0.698,0.571-1.121,0.74
		c-0.564,0.226-1.029,0.232-1.396,0.021c-0.366-0.212-0.677-0.536-0.931-0.973c-0.253-0.437-0.443-0.966-0.57-1.586
		s-0.232-1.227-0.317-1.818c-0.085-0.593-0.155-1.143-0.212-1.649c-0.057-0.508-0.112-0.874-0.169-1.1
		c-0.592,0.479-1.071,1.022-1.438,1.628c-0.367,0.606-0.705,1.227-1.016,1.861c-0.311,0.634-0.628,1.275-0.951,1.924
		c-0.324,0.649-0.727,1.254-1.205,1.818c-0.959,0.563-1.721,0.339-2.284-0.677c-0.169-0.592-0.269-1.232-0.296-1.924
		c-0.028-0.69-0.021-1.389,0.021-2.094c0.042-0.704,0.112-1.402,0.211-2.094C95.133,346.977,95.225,346.335,95.31,345.743z
		 M101.527,331.237c-0.733,2.368-1.326,4.736-1.776,7.104l1.1-1.057c0.931-0.931,1.832-1.903,2.706-2.919
		c0.874-1.015,1.649-2.072,2.326-3.172s1.22-2.263,1.629-3.489c0.408-1.226,0.613-2.53,0.613-3.911c0-0.479-0.198-0.825-0.593-1.036
		c-0.395-0.212-0.846-0.19-1.353,0.063c-0.367,0.198-0.691,0.444-0.974,0.74c-0.281,0.297-0.535,0.613-0.761,0.952
		c-0.649,0.902-1.213,1.98-1.691,3.235C102.273,329.003,101.865,330.166,101.527,331.237z"/>
	<path fill="#F16A5E" d="M117.258,342.444c-0.338,0.733-0.712,1.467-1.12,2.199c-0.409,0.733-0.86,1.403-1.354,2.009
		c-0.494,0.606-1.036,1.142-1.628,1.607c-0.593,0.465-1.27,0.797-2.03,0.993c0,0.452,0.035,0.917,0.105,1.396
		s0.204,0.881,0.402,1.205c0.196,0.324,0.479,0.528,0.846,0.613c0.366,0.084,0.831-0.043,1.396-0.381
		c0.196-0.112,0.5-0.303,0.909-0.571c0.408-0.268,0.846-0.584,1.311-0.951c0.466-0.366,0.902-0.768,1.312-1.205
		c0.408-0.438,0.726-0.867,0.951-1.29c0.112-0.254,0.275-0.381,0.486-0.381c0.212,0,0.402,0.085,0.571,0.254
		s0.281,0.381,0.339,0.635c0.056,0.253,0,0.493-0.17,0.719c-0.169,0.338-0.473,0.747-0.909,1.227
		c-0.438,0.479-0.896,0.951-1.374,1.416c-0.48,0.466-0.952,0.889-1.417,1.27c-0.465,0.38-0.825,0.627-1.078,0.74
		c-0.058,0.027-0.17,0.084-0.339,0.169c-0.169,0.084-0.359,0.183-0.571,0.296c-0.211,0.112-0.43,0.211-0.655,0.296
		s-0.423,0.127-0.592,0.127c-0.62,0-1.185-0.12-1.691-0.359c-0.508-0.24-0.945-0.564-1.312-0.973s-0.663-0.881-0.888-1.417
		c-0.227-0.535-0.367-1.1-0.423-1.691c-0.028-0.197-0.05-0.388-0.063-0.571c-0.015-0.183-0.021-0.373-0.021-0.571
		c-0.197-0.141-0.296-0.331-0.296-0.57s0.084-0.444,0.254-0.613c0-0.423,0.021-0.846,0.063-1.269
		c0.042-0.423,0.133-0.86,0.274-1.312c0.197-0.732,0.486-1.621,0.867-2.664s0.867-2.03,1.459-2.961
		c0.592-0.93,1.29-1.705,2.094-2.326c0.804-0.619,1.713-0.873,2.728-0.761c0.648,0.057,1.127,0.311,1.438,0.761
		c0.311,0.452,0.508,0.973,0.593,1.565c0.084,0.592,0.077,1.198-0.021,1.818S117.456,342.05,117.258,342.444z M114.763,340.287
		c-0.338,0.282-0.677,0.677-1.015,1.185c-0.339,0.508-0.655,1.071-0.951,1.691c-0.297,0.621-0.558,1.263-0.783,1.925
		s-0.409,1.275-0.55,1.84c0.226-0.226,0.466-0.508,0.72-0.847c0.253-0.338,0.535-0.774,0.846-1.311
		c0.141-0.226,0.31-0.521,0.507-0.889c0.197-0.365,0.388-0.761,0.571-1.184c0.183-0.423,0.338-0.846,0.465-1.269
		S114.763,340.626,114.763,340.287z"/>
	<path fill="#F16A5E" d="M130.877,328.868c-0.254,1.213-0.655,2.651-1.205,4.314c-0.55,1.664-1.199,3.341-1.945,5.032
		c-0.748,1.692-1.579,3.278-2.495,4.758c-0.917,1.48-1.868,2.644-2.855,3.489c0.028,0.451,0.057,0.903,0.085,1.354
		c0.027,0.451,0.105,0.888,0.232,1.312c0.127,0.423,0.303,0.811,0.529,1.162c0.225,0.354,0.535,0.656,0.93,0.91
		c1.551-0.311,2.946-0.881,4.188-1.713c1.24-0.832,2.354-1.868,3.341-3.108c0.197-0.17,0.401-0.254,0.613-0.254
		c0.211,0,0.387,0.057,0.528,0.169c0.141,0.113,0.239,0.261,0.296,0.444s0.043,0.401-0.042,0.655
		c-0.479,0.677-1.071,1.389-1.776,2.136s-1.466,1.424-2.283,2.03c-0.818,0.606-1.671,1.106-2.559,1.501
		c-0.889,0.396-1.734,0.571-2.538,0.528c-0.804-0.042-1.544-0.352-2.221-0.93c-0.676-0.578-1.226-1.529-1.648-2.855
		c-0.312-0.986-0.501-2.086-0.571-3.299c-0.071-1.212-0.092-2.325-0.063-3.341c0.027-0.931,0.119-2.009,0.274-3.235
		s0.374-2.502,0.656-3.827c0.281-1.325,0.641-2.664,1.078-4.018c0.437-1.354,0.951-2.637,1.544-3.849
		c0.592-1.212,1.261-2.291,2.009-3.235c0.746-0.944,1.586-1.685,2.517-2.221c0.676-0.423,1.339-0.508,1.987-0.254
		c0.592,0.17,1.021,0.515,1.29,1.036c0.268,0.522,0.423,1.107,0.465,1.756c0.043,0.648,0.014,1.297-0.084,1.945
		C131.053,327.91,130.962,328.445,130.877,328.868z M124.915,332.337c-0.818,1.86-1.438,3.75-1.861,5.667s-0.662,3.877-0.719,5.878
		c0.479-0.676,0.895-1.401,1.248-2.178c0.352-0.775,0.683-1.544,0.993-2.305c0.339-0.789,0.72-1.748,1.143-2.876
		c0.423-1.127,0.824-2.298,1.205-3.51c0.381-1.213,0.697-2.404,0.951-3.574s0.366-2.221,0.339-3.15
		c-0.142,0.169-0.282,0.353-0.423,0.55c-0.142,0.197-0.282,0.395-0.423,0.592c-0.536,0.733-0.987,1.522-1.354,2.368
		C125.647,330.645,125.281,331.49,124.915,332.337z"/>
	<path fill="#F16A5E" d="M142.592,328.868c-0.254,1.213-0.655,2.651-1.205,4.314c-0.55,1.664-1.199,3.341-1.945,5.032
		c-0.748,1.692-1.579,3.278-2.495,4.758c-0.917,1.48-1.868,2.644-2.855,3.489c0.028,0.451,0.057,0.903,0.085,1.354
		c0.027,0.451,0.105,0.888,0.232,1.312c0.127,0.423,0.303,0.811,0.529,1.162c0.225,0.354,0.535,0.656,0.93,0.91
		c1.551-0.311,2.946-0.881,4.188-1.713c1.24-0.832,2.354-1.868,3.341-3.108c0.197-0.17,0.401-0.254,0.613-0.254
		c0.211,0,0.387,0.057,0.528,0.169c0.141,0.113,0.239,0.261,0.296,0.444s0.043,0.401-0.042,0.655
		c-0.479,0.677-1.071,1.389-1.776,2.136s-1.466,1.424-2.283,2.03c-0.818,0.606-1.671,1.106-2.559,1.501
		c-0.889,0.396-1.734,0.571-2.538,0.528c-0.804-0.042-1.544-0.352-2.221-0.93c-0.676-0.578-1.226-1.529-1.648-2.855
		c-0.312-0.986-0.501-2.086-0.571-3.299c-0.071-1.212-0.092-2.325-0.063-3.341c0.027-0.931,0.119-2.009,0.274-3.235
		s0.374-2.502,0.656-3.827c0.281-1.325,0.641-2.664,1.078-4.018c0.437-1.354,0.951-2.637,1.544-3.849
		c0.592-1.212,1.261-2.291,2.009-3.235c0.746-0.944,1.586-1.685,2.517-2.221c0.676-0.423,1.339-0.508,1.987-0.254
		c0.592,0.17,1.021,0.515,1.29,1.036c0.268,0.522,0.423,1.107,0.465,1.756c0.043,0.648,0.014,1.297-0.084,1.945
		C142.768,327.91,142.677,328.445,142.592,328.868z M136.629,332.337c-0.818,1.86-1.438,3.75-1.861,5.667s-0.662,3.877-0.719,5.878
		c0.479-0.676,0.895-1.401,1.248-2.178c0.352-0.775,0.683-1.544,0.993-2.305c0.339-0.789,0.72-1.748,1.143-2.876
		c0.423-1.127,0.824-2.298,1.205-3.51c0.381-1.213,0.697-2.404,0.951-3.574s0.366-2.221,0.339-3.15
		c-0.142,0.169-0.282,0.353-0.423,0.55c-0.142,0.197-0.282,0.395-0.423,0.592c-0.536,0.733-0.987,1.522-1.354,2.368
		C137.362,330.645,136.996,331.49,136.629,332.337z"/>
	<path fill="#F16A5E" d="M152.319,342.444c-0.338,0.733-0.712,1.467-1.12,2.199c-0.409,0.733-0.86,1.403-1.354,2.009
		c-0.494,0.606-1.036,1.142-1.628,1.607c-0.593,0.465-1.27,0.797-2.03,0.993c0,0.452,0.035,0.917,0.105,1.396
		s0.204,0.881,0.402,1.205c0.196,0.324,0.479,0.528,0.846,0.613c0.366,0.084,0.831-0.043,1.396-0.381
		c0.196-0.112,0.5-0.303,0.909-0.571c0.408-0.268,0.846-0.584,1.311-0.951c0.466-0.366,0.902-0.768,1.312-1.205
		c0.408-0.438,0.726-0.867,0.951-1.29c0.112-0.254,0.275-0.381,0.486-0.381c0.212,0,0.402,0.085,0.571,0.254
		s0.281,0.381,0.339,0.635c0.056,0.253,0,0.493-0.17,0.719c-0.169,0.338-0.473,0.747-0.909,1.227
		c-0.438,0.479-0.896,0.951-1.374,1.416c-0.48,0.466-0.952,0.889-1.417,1.27c-0.465,0.38-0.825,0.627-1.078,0.74
		c-0.058,0.027-0.17,0.084-0.339,0.169c-0.169,0.084-0.359,0.183-0.571,0.296c-0.211,0.112-0.43,0.211-0.655,0.296
		s-0.423,0.127-0.592,0.127c-0.62,0-1.185-0.12-1.691-0.359c-0.508-0.24-0.945-0.564-1.312-0.973s-0.663-0.881-0.888-1.417
		c-0.227-0.535-0.367-1.1-0.423-1.691c-0.028-0.197-0.05-0.388-0.063-0.571c-0.015-0.183-0.021-0.373-0.021-0.571
		c-0.197-0.141-0.296-0.331-0.296-0.57s0.084-0.444,0.254-0.613c0-0.423,0.021-0.846,0.063-1.269
		c0.042-0.423,0.133-0.86,0.274-1.312c0.197-0.732,0.486-1.621,0.867-2.664s0.867-2.03,1.459-2.961
		c0.592-0.93,1.29-1.705,2.094-2.326c0.804-0.619,1.713-0.873,2.728-0.761c0.648,0.057,1.127,0.311,1.438,0.761
		c0.311,0.452,0.508,0.973,0.593,1.565c0.084,0.592,0.077,1.198-0.021,1.818S152.516,342.05,152.319,342.444z M149.824,340.287
		c-0.338,0.282-0.677,0.677-1.015,1.185c-0.339,0.508-0.655,1.071-0.951,1.691c-0.297,0.621-0.558,1.263-0.783,1.925
		s-0.409,1.275-0.55,1.84c0.226-0.226,0.466-0.508,0.72-0.847c0.253-0.338,0.535-0.774,0.846-1.311
		c0.141-0.226,0.31-0.521,0.507-0.889c0.197-0.365,0.388-0.761,0.571-1.184c0.183-0.423,0.338-0.846,0.465-1.269
		S149.824,340.626,149.824,340.287z"/>
	<path fill="#F16A5E" d="M182.347,321.806c0.055-0.254,0.168-0.45,0.338-0.592c0.168-0.141,0.352-0.218,0.549-0.232
		s0.373,0.035,0.529,0.147c0.154,0.113,0.246,0.296,0.275,0.55l-0.254,2.538c1.381,0.226,2.756,0.443,4.123,0.655
		c1.367,0.211,2.742,0.401,4.123,0.571c0.508,0.112,0.732,0.388,0.678,0.824c-0.057,0.438-0.354,0.712-0.889,0.825
		c-1.383-0.028-2.756-0.085-4.123-0.17c-1.369-0.084-2.742-0.154-4.125-0.211c-0.084,0.817-0.168,1.572-0.252,2.263
		c-0.086,0.69-0.184,1.36-0.297,2.009s-0.232,1.311-0.359,1.987s-0.262,1.41-0.402,2.199c-0.084,0.396-0.154,0.776-0.211,1.142
		c-0.057,0.367-0.113,0.748-0.17,1.143c0.846-0.028,1.686-0.021,2.518,0.021c0.83,0.043,1.627,0.092,2.389,0.148
		c0.227,0.028,0.551,0.063,0.973,0.105c0.424,0.043,0.846,0.092,1.27,0.148c0.422,0.057,0.811,0.134,1.162,0.232
		c0.354,0.1,0.572,0.219,0.656,0.359c0.281,0.396,0.225,0.818-0.17,1.269c-0.141,0.113-0.303,0.219-0.486,0.317
		c-0.184,0.1-0.373,0.163-0.57,0.19c-0.197,0.028-0.381,0-0.551-0.085c-0.168-0.084-0.295-0.253-0.379-0.507
		c-1.186-0.057-2.369-0.077-3.553-0.063c-1.186,0.015-2.412,0.05-3.68,0.105c-0.254,1.522-0.557,3.01-0.91,4.462
		c-0.352,1.452-0.781,2.939-1.289,4.462c-0.311,0.987-0.648,1.952-1.016,2.896c-0.367,0.945-0.832,1.826-1.395,2.644
		c-0.904,1.354-1.932,2.248-3.088,2.686c-1.156,0.437-2.305,0.535-3.447,0.296c-1.143-0.239-2.214-0.761-3.215-1.564
		s-1.818-1.776-2.452-2.918c-0.635-1.143-1.009-2.39-1.121-3.743c-0.113-1.354,0.154-2.692,0.804-4.018
		c0.677-1.325,1.522-2.425,2.537-3.299c1.016-0.874,2.136-1.586,3.362-2.136s2.538-0.966,3.934-1.248
		c1.395-0.281,2.813-0.493,4.25-0.634c0.141,0.028,0.275,0.028,0.4,0c0.127-0.028,0.262-0.057,0.402-0.085
		c0.227-0.986,0.451-1.917,0.678-2.791c0.225-0.874,0.443-1.734,0.654-2.58c0.213-0.846,0.408-1.713,0.592-2.601
		c0.184-0.889,0.346-1.84,0.486-2.855c-1.605-0.056-3.191-0.091-4.758-0.105c-1.564-0.014-3.15,0.036-4.757,0.148
		c-0.564,0.057-1.114,0.12-1.649,0.19s-1.085,0.147-1.649,0.232c-0.874,0.197-1.522,0.458-1.945,0.782s-0.648,0.663-0.677,1.015
		c-0.028,0.354,0.134,0.698,0.486,1.036c0.353,0.339,0.881,0.621,1.586,0.847c0.564,0.141,1.212,0.247,1.945,0.316
		c0.733,0.071,1.367,0.135,1.903,0.19c0.931,0.057,1.847,0.1,2.75,0.127c0.902,0.028,1.805,0.155,2.707,0.381
		c0.281,0.057,0.465,0.177,0.549,0.359c0.084,0.184,0.1,0.374,0.043,0.571s-0.184,0.366-0.381,0.507
		c-0.197,0.142-0.438,0.212-0.719,0.212c-0.734-0.057-1.664-0.042-2.791,0.042c-1.129,0.085-2.285,0.142-3.468,0.169
		c-1.185,0.029-2.305-0.021-3.362-0.147s-1.868-0.43-2.432-0.909c-0.875-0.762-1.438-1.607-1.692-2.538
		c-0.253-0.93-0.226-1.818,0.085-2.664c0.31-0.846,0.881-1.586,1.713-2.221c0.831-0.634,1.882-1.05,3.15-1.247
		c2.34-0.395,4.653-0.55,6.936-0.466c2.283,0.085,4.568,0.254,6.852,0.508L182.347,321.806z M178.159,341.768
		c0.084-0.31,0.162-0.613,0.232-0.909s0.148-0.599,0.232-0.909c-1.834,0.226-3.645,0.727-5.434,1.501
		c-1.792,0.776-3.307,1.826-4.547,3.151c-0.396,0.451-0.684,0.987-0.867,1.606c-0.184,0.621-0.274,1.283-0.274,1.988
		s0.091,1.424,0.274,2.156c0.184,0.734,0.444,1.41,0.782,2.03c0.366,0.621,0.818,1.036,1.354,1.248
		c0.535,0.211,1.079,0.296,1.629,0.254c0.55-0.043,1.072-0.184,1.564-0.423c0.494-0.239,0.867-0.529,1.121-0.867
		c0.535-0.733,1-1.558,1.396-2.475c0.395-0.916,0.746-1.854,1.057-2.813c0.311-0.958,0.578-1.909,0.803-2.854
		C177.708,343.509,177.933,342.613,178.159,341.768z"/>
	<path fill="#F16A5E" d="M188.224,350.479c-0.254,0.058-0.465,0.028-0.635-0.084c-0.168-0.112-0.295-0.254-0.379-0.423
		c-0.086-0.17-0.107-0.359-0.064-0.571s0.162-0.401,0.359-0.571c0.311-0.535,0.713-1.317,1.205-2.347
		c0.494-1.029,0.994-2.101,1.502-3.215c0.508-1.113,1-2.163,1.48-3.15c0.479-0.986,0.859-1.691,1.141-2.114
		c0.648-0.508,1.326-0.535,2.031-0.085c0.732,0.987,1.354,1.833,1.861,2.538c0.506,0.705,0.908,1.36,1.205,1.966
		c0.295,0.607,0.5,1.191,0.613,1.756c0.111,0.563,0.148,1.191,0.105,1.882c-0.043,0.691-0.148,1.48-0.318,2.368
		c-0.168,0.888-0.379,1.953-0.633,3.193c0.816-0.17,1.621-0.409,2.41-0.72c0.789-0.31,1.578-0.619,2.367-0.93
		c0.283-0.112,0.529-0.12,0.74-0.021c0.213,0.1,0.359,0.232,0.445,0.401c0.084,0.17,0.098,0.367,0.041,0.593
		s-0.211,0.409-0.465,0.55c-0.986,0.564-1.986,1.114-3.002,1.649s-2.059,1-3.131,1.396c-0.365,0.056-0.662,0.049-0.887-0.021
		c-0.227-0.07-0.48-0.232-0.762-0.486c-0.424-0.395-0.676-0.817-0.762-1.269c-0.084-0.451-0.1-0.909-0.041-1.375
		c0.055-0.465,0.154-0.944,0.295-1.438s0.24-0.994,0.297-1.501c0.084-0.733,0.127-1.41,0.127-2.03s-0.051-1.205-0.148-1.755
		c-0.1-0.55-0.268-1.1-0.508-1.649s-0.557-1.135-0.951-1.756c-0.227,0.311-0.57,0.931-1.037,1.861
		c-0.465,0.931-0.973,1.918-1.521,2.96c-0.551,1.044-1.094,2.003-1.629,2.876C189.042,349.832,188.591,350.339,188.224,350.479z"/>
	<path fill="#F16A5E" d="M212.204,341.641c0,0.113-0.029,0.254-0.086,0.423c0.564-0.112,1.016-0.007,1.354,0.317
		s0.494,0.811,0.465,1.459c-0.111,0.508-0.289,1.171-0.527,1.988c-0.24,0.817-0.465,1.656-0.678,2.516
		c-0.211,0.86-0.381,1.678-0.508,2.453c-0.127,0.776-0.119,1.39,0.021,1.84c0.424-0.027,0.824-0.162,1.205-0.401
		s0.748-0.521,1.1-0.847c0.354-0.323,0.684-0.669,0.994-1.036c0.311-0.365,0.592-0.704,0.846-1.015
		c0.227-0.169,0.451-0.246,0.678-0.232c0.225,0.015,0.408,0.092,0.549,0.232c0.141,0.142,0.219,0.324,0.232,0.55
		s-0.063,0.451-0.232,0.677c-0.027,0.028-0.189,0.232-0.486,0.613c-0.295,0.381-0.654,0.804-1.078,1.269
		c-0.422,0.466-0.875,0.924-1.354,1.375c-0.48,0.45-0.93,0.761-1.354,0.93c-0.508,0.226-1.078,0.339-1.713,0.339
		s-1.105-0.296-1.416-0.889c-0.254-0.563-0.43-1.127-0.529-1.691c-0.1-0.563-0.148-1.127-0.148-1.691
		c-0.506,0.507-1.064,0.944-1.67,1.311c-0.607,0.367-1.262,0.748-1.967,1.143c-0.281,0.057-0.586,0.049-0.908-0.021
		c-0.324-0.07-0.635-0.183-0.932-0.338c-0.295-0.155-0.564-0.353-0.803-0.593c-0.24-0.239-0.402-0.514-0.486-0.824
		c-0.227-0.705-0.262-1.635-0.105-2.792c0.154-1.155,0.436-2.318,0.846-3.488c0.408-1.17,0.902-2.248,1.48-3.235
		c0.576-0.987,1.189-1.664,1.84-2.03c0.365-0.226,0.725-0.451,1.078-0.677c0.352-0.226,0.725-0.366,1.121-0.423
		c0.479-0.085,0.914-0.07,1.311,0.042c0.395,0.113,0.74,0.311,1.035,0.592c0.297,0.282,0.516,0.607,0.656,0.974
		S212.231,341.218,212.204,341.641z M205.647,349.761c0.705-0.395,1.283-0.909,1.734-1.544c0.451-0.634,0.867-1.296,1.248-1.987
		c0.381-0.69,0.754-1.36,1.121-2.009c0.365-0.648,0.83-1.212,1.395-1.691c-0.367-0.112-0.564-0.381-0.592-0.804l-0.043-0.381
		l-1.184-0.381c-0.648,0.423-1.213,0.98-1.691,1.671c-0.48,0.691-0.875,1.438-1.184,2.241c-0.311,0.804-0.537,1.628-0.678,2.475
		C205.634,348.196,205.591,349,205.647,349.761z"/>
	<path fill="#F16A5E" d="M219.815,341.133c0.057,0.508,0.105,1.016,0.148,1.523c0.043,0.507,0.035,1.029-0.021,1.564
		c0.535-0.931,1.107-1.818,1.713-2.664c0.607-0.847,1.275-1.72,2.01-2.622c0.309-0.282,0.605-0.458,0.889-0.529
		c0.281-0.07,0.619-0.035,1.014,0.105c0.281,0.085,0.508,0.185,0.678,0.297c0.338,0.226,0.57,0.465,0.697,0.719
		s0.176,0.592,0.148,1.015c-0.057,0.903-0.148,1.798-0.275,2.686c-0.127,0.889-0.24,1.776-0.338,2.665
		c-0.1,0.888-0.17,1.775-0.211,2.664c-0.043,0.888,0.006,1.783,0.146,2.686l0.846,0.634l2.834-0.888
		c0.281-0.112,0.529-0.119,0.74-0.021c0.211,0.1,0.359,0.233,0.443,0.402c0.086,0.169,0.1,0.366,0.043,0.592
		c-0.057,0.227-0.211,0.409-0.465,0.55c-0.592,0.254-1.164,0.522-1.713,0.804c-0.551,0.282-1.094,0.479-1.629,0.592
		s-1.057,0.077-1.564-0.105s-1.029-0.613-1.564-1.29c-0.367-0.479-0.621-1.071-0.762-1.776c-0.141-0.704-0.219-1.438-0.232-2.199
		c-0.014-0.761,0.014-1.508,0.084-2.241c0.07-0.732,0.135-1.367,0.191-1.903c-0.648,0.874-1.227,1.791-1.734,2.749
		c-0.508,0.959-1.002,1.918-1.48,2.876c-0.311,0.592-0.592,1.191-0.846,1.798s-0.635,1.135-1.143,1.586
		c-0.564,0.338-1.084,0.395-1.564,0.169c-0.479-0.226-0.762-0.662-0.846-1.312c0-0.619,0.064-1.282,0.191-1.987
		s0.287-1.41,0.486-2.115c0.195-0.704,0.4-1.396,0.613-2.072c0.211-0.677,0.387-1.296,0.527-1.86v-0.042
		c0.086-0.479,0.141-0.966,0.17-1.46c0.027-0.492,0.043-1.021,0.043-1.586c0.084-0.225,0.203-0.401,0.359-0.528
		c0.154-0.127,0.316-0.197,0.486-0.211c0.168-0.015,0.33,0.035,0.486,0.147c0.154,0.113,0.273,0.282,0.359,0.508h0.041V341.133z"/>
	<path fill="#F16A5E" d="M232.589,345.997c0.111-1.128,0.246-2.241,0.4-3.341s0.346-2.186,0.572-3.257
		c-0.678,0.142-1.299,0.289-1.861,0.444c-0.564,0.155-0.959,0.289-1.184,0.401c-0.143,0.057-0.297,0.105-0.467,0.148
		c-0.168,0.042-0.324,0.049-0.465,0.021c-0.141-0.027-0.26-0.091-0.359-0.19c-0.1-0.098-0.148-0.26-0.148-0.486
		c-0.057-0.563,0.262-1.092,0.953-1.586c0.689-0.492,1.486-0.923,2.389-1.29c0.564-0.479,1-0.915,1.311-1.311
		c0.311-0.395,0.564-0.804,0.762-1.227s0.365-0.895,0.508-1.417c0.141-0.521,0.324-1.135,0.549-1.84
		c0.086-0.338,0.213-0.888,0.381-1.649c0.17-0.761,0.395-1.515,0.678-2.263c0.281-0.746,0.633-1.381,1.057-1.902
		s0.943-0.712,1.564-0.571c0.281,0.085,0.43,0.289,0.445,0.613c0.014,0.324-0.064,0.882-0.234,1.671
		c-0.168,0.789-0.416,1.868-0.738,3.235c-0.326,1.367-0.686,3.15-1.08,5.35c0.311-0.027,0.627-0.049,0.953-0.063
		c0.322-0.014,0.641-0.021,0.951-0.021c0.703,0,1.324,0.021,1.861,0.063c0.535,0.043,1.154,0.092,1.859,0.148
		c0.281,0,0.508,0.078,0.678,0.232c0.168,0.155,0.26,0.332,0.273,0.528c0.016,0.198-0.041,0.389-0.168,0.571
		c-0.127,0.184-0.332,0.289-0.613,0.317c-0.311,0.084-0.783,0.19-1.418,0.317c-0.633,0.127-1.303,0.268-2.008,0.423
		s-1.354,0.303-1.945,0.443c-0.592,0.142-1.002,0.254-1.227,0.339c-0.227,1.1-0.451,2.249-0.678,3.446
		c-0.225,1.199-0.4,2.397-0.527,3.596s-0.191,2.368-0.191,3.51s0.086,2.178,0.254,3.108c0.086,0.142,0.324,0.1,0.719-0.127
		c0.395-0.226,0.881-0.613,1.459-1.163s1.227-1.254,1.947-2.114c0.719-0.859,1.443-1.867,2.178-3.024
		c0.225-0.169,0.449-0.246,0.676-0.232c0.225,0.015,0.408,0.092,0.551,0.232c0.141,0.142,0.217,0.325,0.232,0.55
		c0.014,0.227-0.064,0.452-0.232,0.677c-0.564,1.1-1.256,2.228-2.072,3.384c-0.818,1.156-1.658,2.157-2.518,3.003
		s-1.699,1.431-2.516,1.755c-0.818,0.324-1.51,0.204-2.072-0.359c-0.564-0.564-0.973-1.22-1.227-1.967s-0.402-1.522-0.445-2.326
		c-0.041-0.804-0.027-1.621,0.043-2.453C232.468,347.513,232.53,346.73,232.589,345.997z"/>
	<path fill="#F16A5E" d="M245.106,341.641c0.451-0.648,0.84-0.923,1.164-0.824c0.322,0.099,0.486,0.43,0.486,0.993
		c-0.227,1.27-0.438,2.481-0.635,3.638s-0.346,2.171-0.443,3.045c-0.1,0.874-0.127,1.586-0.086,2.136
		c0.043,0.55,0.219,0.839,0.529,0.867v0.042c0.365,0.142,0.816,0.177,1.354,0.105c0.535-0.069,1.092-0.225,1.67-0.465
		c0.578-0.239,1.148-0.535,1.713-0.889c0.564-0.352,1.072-0.754,1.523-1.205c0.254-0.084,0.479-0.099,0.676-0.042
		s0.352,0.155,0.465,0.296c0.113,0.142,0.17,0.317,0.17,0.528c0,0.212-0.084,0.417-0.254,0.613
		c-2.002,1.607-3.701,2.693-5.096,3.257c-1.396,0.563-2.523,0.762-3.385,0.592c-0.859-0.169-1.465-0.627-1.818-1.374
		c-0.352-0.747-0.5-1.614-0.443-2.602c0.141-1.832,0.438-3.418,0.889-4.758C244.034,344.256,244.542,342.938,245.106,341.641z
		 M248.448,332.21c0.168,0.254,0.246,0.521,0.232,0.804c-0.014,0.281-0.092,0.521-0.232,0.719c-0.143,0.197-0.332,0.317-0.57,0.359
		c-0.24,0.042-0.502-0.035-0.783-0.232c-0.311-0.226-0.473-0.479-0.486-0.762c-0.016-0.281,0.063-0.528,0.232-0.74
		c0.17-0.211,0.395-0.345,0.676-0.401C247.8,331.899,248.11,331.984,248.448,332.21z"/>
	<path fill="#F16A5E" d="M263.8,328.868c-0.254,1.213-0.656,2.651-1.205,4.314c-0.551,1.664-1.199,3.341-1.945,5.032
		c-0.748,1.692-1.58,3.278-2.496,4.758c-0.916,1.48-1.867,2.644-2.855,3.489c0.029,0.451,0.057,0.903,0.086,1.354
		c0.027,0.451,0.105,0.888,0.232,1.312c0.127,0.423,0.303,0.811,0.529,1.162c0.225,0.354,0.535,0.656,0.93,0.91
		c1.551-0.311,2.945-0.881,4.188-1.713c1.24-0.832,2.354-1.868,3.34-3.108c0.197-0.17,0.402-0.254,0.613-0.254
		s0.387,0.057,0.529,0.169c0.141,0.113,0.238,0.261,0.295,0.444s0.043,0.401-0.041,0.655c-0.48,0.677-1.072,1.389-1.777,2.136
		s-1.465,1.424-2.283,2.03s-1.67,1.106-2.559,1.501c-0.889,0.396-1.734,0.571-2.537,0.528c-0.805-0.042-1.545-0.352-2.221-0.93
		s-1.227-1.529-1.648-2.855c-0.313-0.986-0.502-2.086-0.572-3.299c-0.07-1.212-0.092-2.325-0.063-3.341
		c0.027-0.931,0.119-2.009,0.273-3.235c0.156-1.227,0.375-2.502,0.656-3.827s0.641-2.664,1.078-4.018s0.951-2.637,1.545-3.849
		c0.592-1.212,1.26-2.291,2.008-3.235c0.746-0.944,1.586-1.685,2.518-2.221c0.676-0.423,1.338-0.508,1.986-0.254
		c0.592,0.17,1.021,0.515,1.291,1.036c0.268,0.522,0.422,1.107,0.465,1.756s0.014,1.297-0.084,1.945
		C263.976,327.91,263.884,328.445,263.8,328.868z M257.837,332.337c-0.818,1.86-1.439,3.75-1.861,5.667
		c-0.424,1.917-0.662,3.877-0.719,5.878c0.479-0.676,0.895-1.401,1.248-2.178c0.352-0.775,0.682-1.544,0.992-2.305
		c0.34-0.789,0.721-1.748,1.143-2.876c0.424-1.127,0.824-2.298,1.205-3.51c0.381-1.213,0.697-2.404,0.951-3.574
		s0.367-2.221,0.34-3.15c-0.143,0.169-0.283,0.353-0.424,0.55s-0.281,0.395-0.422,0.592c-0.537,0.733-0.988,1.522-1.354,2.368
		C258.569,330.645,258.202,331.49,257.837,332.337z"/>
	<path fill="#F16A5E" d="M275.515,328.868c-0.254,1.213-0.654,2.651-1.205,4.314c-0.549,1.664-1.199,3.341-1.945,5.032
		c-0.748,1.692-1.578,3.278-2.494,4.758c-0.918,1.48-1.869,2.644-2.855,3.489c0.027,0.451,0.057,0.903,0.084,1.354
		c0.027,0.451,0.105,0.888,0.232,1.312c0.127,0.423,0.303,0.811,0.529,1.162c0.225,0.354,0.535,0.656,0.93,0.91
		c1.551-0.311,2.947-0.881,4.188-1.713s2.354-1.868,3.342-3.108c0.197-0.17,0.4-0.254,0.613-0.254c0.211,0,0.387,0.057,0.527,0.169
		c0.141,0.113,0.24,0.261,0.297,0.444s0.043,0.401-0.043,0.655c-0.479,0.677-1.07,1.389-1.775,2.136s-1.467,1.424-2.283,2.03
		c-0.818,0.606-1.672,1.106-2.559,1.501c-0.889,0.396-1.734,0.571-2.539,0.528c-0.803-0.042-1.543-0.352-2.221-0.93
		c-0.676-0.578-1.225-1.529-1.648-2.855c-0.311-0.986-0.5-2.086-0.57-3.299c-0.072-1.212-0.092-2.325-0.064-3.341
		c0.027-0.931,0.119-2.009,0.275-3.235c0.154-1.227,0.373-2.502,0.656-3.827c0.281-1.325,0.641-2.664,1.078-4.018
		c0.436-1.354,0.951-2.637,1.543-3.849s1.262-2.291,2.01-3.235c0.746-0.944,1.586-1.685,2.516-2.221
		c0.676-0.423,1.34-0.508,1.988-0.254c0.592,0.17,1.021,0.515,1.289,1.036c0.268,0.522,0.424,1.107,0.465,1.756
		c0.043,0.648,0.014,1.297-0.084,1.945C275.69,327.91,275.601,328.445,275.515,328.868z M269.552,332.337
		c-0.818,1.86-1.438,3.75-1.861,5.667c-0.422,1.917-0.662,3.877-0.719,5.878c0.48-0.676,0.895-1.401,1.248-2.178
		c0.352-0.775,0.684-1.544,0.994-2.305c0.338-0.789,0.719-1.748,1.143-2.876c0.422-1.127,0.824-2.298,1.205-3.51
		c0.381-1.213,0.697-2.404,0.951-3.574s0.365-2.221,0.338-3.15c-0.141,0.169-0.281,0.353-0.422,0.55
		c-0.143,0.197-0.283,0.395-0.424,0.592c-0.535,0.733-0.986,1.522-1.354,2.368S269.919,331.49,269.552,332.337z"/>
	<path fill="#F16A5E" d="M285.411,341.641c0,0.113-0.027,0.254-0.084,0.423c0.563-0.112,1.014-0.007,1.354,0.317
		c0.338,0.324,0.492,0.811,0.465,1.459c-0.113,0.508-0.289,1.171-0.529,1.988s-0.465,1.656-0.676,2.516
		c-0.213,0.86-0.381,1.678-0.508,2.453c-0.127,0.776-0.121,1.39,0.021,1.84c0.422-0.027,0.824-0.162,1.205-0.401
		s0.746-0.521,1.1-0.847c0.352-0.323,0.684-0.669,0.994-1.036c0.309-0.365,0.592-0.704,0.846-1.015
		c0.225-0.169,0.451-0.246,0.676-0.232c0.227,0.015,0.408,0.092,0.551,0.232c0.141,0.142,0.217,0.324,0.232,0.55
		c0.014,0.226-0.064,0.451-0.232,0.677c-0.029,0.028-0.191,0.232-0.486,0.613c-0.297,0.381-0.656,0.804-1.078,1.269
		c-0.424,0.466-0.875,0.924-1.354,1.375c-0.48,0.45-0.932,0.761-1.354,0.93c-0.508,0.226-1.078,0.339-1.713,0.339
		s-1.107-0.296-1.418-0.889c-0.254-0.563-0.43-1.127-0.527-1.691c-0.1-0.563-0.148-1.127-0.148-1.691
		c-0.508,0.507-1.064,0.944-1.67,1.311c-0.607,0.367-1.264,0.748-1.967,1.143c-0.283,0.057-0.586,0.049-0.91-0.021
		s-0.635-0.183-0.93-0.338c-0.297-0.155-0.564-0.353-0.805-0.593c-0.238-0.239-0.4-0.514-0.486-0.824
		c-0.225-0.705-0.26-1.635-0.105-2.792c0.154-1.155,0.438-2.318,0.846-3.488s0.902-2.248,1.48-3.235s1.191-1.664,1.84-2.03
		c0.367-0.226,0.727-0.451,1.078-0.677c0.354-0.226,0.727-0.366,1.121-0.423c0.479-0.085,0.916-0.07,1.311,0.042
		c0.395,0.113,0.74,0.311,1.037,0.592c0.295,0.282,0.514,0.607,0.654,0.974C285.384,340.823,285.438,341.218,285.411,341.641z
		 M278.856,349.761c0.703-0.395,1.281-0.909,1.734-1.544c0.449-0.634,0.865-1.296,1.246-1.987c0.381-0.69,0.754-1.36,1.121-2.009
		s0.832-1.212,1.396-1.691c-0.367-0.112-0.564-0.381-0.592-0.804l-0.043-0.381l-1.184-0.381c-0.65,0.423-1.213,0.98-1.693,1.671
		c-0.479,0.691-0.873,1.438-1.184,2.241s-0.535,1.628-0.676,2.475C278.841,348.196,278.8,349,278.856,349.761z"/>
</g>
</svg>
