<?xml version="1.0" encoding="utf-8"?>
<!-- Generator: Adobe Illustrator 16.0.0, SVG Export Plug-In . SVG Version: 6.00 Build 0)  -->
<!DOCTYPE svg PUBLIC "-//W3C//DTD SVG 1.1//EN" "http://www.w3.org/Graphics/SVG/1.1/DTD/svg11.dtd">
<svg version="1.1" id="Layer_1" xmlns="http://www.w3.org/2000/svg" xmlns:xlink="http://www.w3.org/1999/xlink" x="0px" y="0px"
	 width="282.859px" height="267.399px" viewBox="0 0 282.859 267.399" enable-background="new 0 0 282.859 267.399"
	 xml:space="preserve">
<path fill-rule="evenodd" clip-rule="evenodd" fill="#FFFFFF" d="M282.859,232.486c-16.129,8.453-32.917,14.67-51.04,15.943
	c-8.527,0.6-17.167-0.586-25.757-0.621c-2.141-0.009-4.479,0.967-6.4,2.064c-21.464,12.265-44.679,18.195-69.225,17.467
	c-67.32-2.002-116.951-50.584-127.978-107.994C-11.023,89.157,32.266,22.282,99.681,4.435
	C173.409-15.083,249.02,31.762,264.27,106.756c7.38,36.292,0.65,70.015-19.631,100.943c-2.358,3.596-2.365,5.695,0.619,8.861
	C255.492,227.42,268.153,232.021,282.859,232.486z"/>
</svg>
